# xmcd
#
# Track frame offsets: 
#        150
#        17541
#        36163
#        56436
#        71485
#        90707
#        110064
#        126012
#        145705
#        158823
#        177488
#
# Disc length: 2785 seconds
#
# Revision: 0
# Processed by: cddbd v1.5.2PL0 Copyright (c) Steve Scherf et al.
# Submitted via: ExactAudioCopy v1.0b1
#
DISCID=900adf0b
DTITLE=Pretty Blue Guns - Shed Your Skin
DYEAR=2011
DGENRE=Blues
TTITLE0=Shed Your Skin
TTITLE1=Killing The Thrill
TTITLE2=Skin Tight's Knife Fight
TTITLE3=Dear Karen
TTITLE4=Mocking Bird
TTITLE5=Misery
TTITLE6=The Ride (feat. Mandi Lizamore)
TTITLE7=Saturday Night Scream
TTITLE8=Stability
TTITLE9=Babydoll
TTITLE10=Red Crow
EXTD=
EXTT0=
EXTT1=
EXTT2=
EXTT3=
EXTT4=
EXTT5=
EXTT6=
EXTT7=
EXTT8=
EXTT9=
EXTT10=
PLAYORDER=
